<svg width="362" height="364" viewBox="0 0 362 364" fill="none" xmlns="http://www.w3.org/2000/svg">
<path fill-rule="evenodd" clip-rule="evenodd" d="M146.473 25.2139L124.145 0.64624L121.355 9.30591C114.125 7.85425 106.799 6.78296 99.3846 6.24927C68.1248 3.46289 33.6404 12.6191 15.3484 40.0203C-13.1252 83.9836 5.38457 143.307 27.7908 185.953C28.3182 186.951 28.8523 187.95 29.3953 188.95C7.65801 231.938 -8.78144 289.472 18.8387 331.036C43.2342 366.026 90.6512 366.687 128.145 356.614L127.312 353.526C117.931 356.14 108.333 358.005 98.6453 358.922C70.0984 361.942 38.3016 354.13 21.6668 329.093C-3.50605 289.685 11.9891 236.019 32.8592 195.151C77.3934 272.715 167.414 350.829 256.233 362.843C298.895 368.448 340.51 354.172 353.422 309.614C361.552 280.474 355.448 249.307 345.385 221.583C341.683 211.731 337.433 202.123 332.692 192.77C349.541 161.807 361.01 127.99 361.525 93.6814C361.552 30.4783 315.969 -0.453857 255.942 8.32202C167.417 21.593 80.2029 99.6606 36.6922 175.364C36.1678 176.286 35.6443 177.218 35.1209 178.159C31.3436 170.585 27.91 162.844 24.8904 154.937C8.85918 114.208 1.10918 54.5669 44.8221 28.8794C52.6248 24.4785 61.3904 21.7336 70.4373 20.3379C85.8162 18.0669 101.645 19.6299 116.863 23.2476L114.005 32.1201L146.473 25.2139ZM38.4734 184.671C44.6854 196.367 51.6912 207.653 59.2283 218.521C103.552 281.515 179.047 344.833 257.066 356.453C274.75 358.817 293.233 358.317 309.88 351.51C339.416 339.937 352.994 310.291 352.525 279.812C352.417 250.943 343.035 222.551 330.554 196.634C318.372 218.28 303.635 238.461 288.292 256.349C275.871 270.74 262.394 284.195 248.039 296.677L252.512 302.248L219.716 307.384L231.809 276.467L237.901 284.052C271.562 254.973 301.386 220.31 322.281 180.909C310.691 160.323 296.824 141.018 281.338 123.182C268.561 108.354 254.614 94.5254 239.744 81.7805L241.181 80.0828C273.67 107.643 302.724 140.256 324.218 177.195C328.939 167.976 333.171 158.502 336.848 148.786C346.431 122.468 352.261 93.5564 344.797 66.3689C333.24 26.1658 295.531 14.4263 257.36 19.2856C171.65 30.697 85.2606 105.989 42.0359 178.489C40.8455 180.5 39.6561 182.563 38.4734 184.671ZM126.469 173.838C124.578 176.444 122.094 178.444 119.02 179.838C122.844 181.203 125.686 183.256 127.567 185.985C129.442 188.713 130.38 191.938 130.38 195.661C130.38 201.683 128.186 206.506 123.797 210.135C119.406 213.765 113.598 215.583 106.37 215.583C99.6033 215.583 94.0721 213.798 89.7752 210.229C85.4783 206.661 83.3328 201.948 83.3328 196.083H96.7811C96.7811 198.625 97.7342 200.704 99.6404 202.319C101.552 203.933 103.9 204.74 106.692 204.74C109.885 204.74 112.389 203.896 114.208 202.203C116.02 200.51 116.931 198.271 116.931 195.479C116.931 188.713 113.208 185.333 105.76 185.333H98.6404V174.819H105.806C109.219 174.819 111.75 173.963 113.395 172.256C115.036 170.548 115.858 168.286 115.858 165.463C115.858 162.729 115.047 160.604 113.416 159.083C111.786 157.569 109.547 156.802 106.692 156.802C104.114 156.802 101.958 157.51 100.223 158.923C98.4842 160.333 97.6141 162.172 97.6141 164.438H84.1658C84.1658 160.901 85.1189 157.729 87.0311 154.923C88.9373 152.109 91.6033 149.917 95.0311 148.333C98.4627 146.75 102.239 145.958 106.364 145.958C113.531 145.958 119.145 147.673 123.213 151.104C127.275 154.531 129.306 159.255 129.306 165.271C129.306 168.375 128.364 171.229 126.469 173.838ZM153.461 174.812C157.059 171.152 161.606 169.323 167.096 169.323C172.991 169.323 177.674 171.433 181.147 175.652C184.622 179.871 186.361 185.423 186.361 192.312C186.361 196.719 185.408 200.704 183.502 204.271C181.591 207.839 178.892 210.615 175.402 212.6C171.913 214.589 167.966 215.579 163.559 215.579C156.424 215.579 150.658 213.1 146.272 208.135C141.883 203.173 139.684 196.548 139.684 188.26V183.423C139.684 176.073 141.074 169.579 143.85 163.948C146.627 158.319 150.616 153.958 155.814 150.871C161.012 147.787 167.033 146.225 173.892 146.194H176.127V157.271H174.824C168.741 157.365 163.846 158.944 160.142 162.016C156.434 165.089 154.211 169.354 153.461 174.812ZM163.283 204.74C166.169 204.74 168.502 203.6 170.283 201.323C172.069 199.048 172.961 196.1 172.961 192.475C172.961 188.792 172.059 185.819 170.262 183.558C168.461 181.298 166.044 180.168 163.002 180.168C160.831 180.168 158.861 180.735 157.091 181.865C155.324 182.996 154.022 184.485 153.184 186.344V190.433C153.184 194.923 154.069 198.433 155.836 200.954C157.606 203.475 160.086 204.74 163.283 204.74ZM216.986 145.958C209.6 145.958 203.944 148.411 200.022 153.312C196.096 158.213 194.137 165.396 194.137 174.86V187.328C194.231 196.423 196.231 203.401 200.137 208.271C204.049 213.146 209.694 215.578 217.081 215.578C224.554 215.578 230.236 213.094 234.111 208.131C237.991 203.167 239.929 196 239.929 186.631V174.161C239.836 165.069 237.836 158.099 233.924 153.24C230.017 148.385 224.372 145.958 216.986 145.958ZM226.481 189.036C226.419 194.35 225.659 198.292 224.199 200.871C222.741 203.448 220.367 204.74 217.081 204.74C213.758 204.74 211.346 203.39 209.841 200.708C208.341 198.021 207.586 193.917 207.586 188.385V171.896C207.679 166.708 208.475 162.896 209.981 160.458C211.486 158.021 213.819 156.802 216.986 156.802C220.247 156.802 222.642 158.083 224.179 160.646C225.711 163.208 226.481 167.302 226.481 172.923V189.036ZM256.888 145.958C259.877 145.958 262.164 146.944 263.741 148.906C265.324 150.875 266.138 153.698 266.174 157.375V162.427C266.174 166.219 265.392 169.121 263.819 171.131C262.252 173.135 259.949 174.14 256.924 174.14C253.934 174.14 251.652 173.156 250.069 171.188C248.486 169.213 247.679 166.39 247.637 162.708V157.661C247.637 153.829 248.434 150.922 250.022 148.938C251.611 146.953 253.897 145.958 256.888 145.958ZM259.809 168.188C260.397 167.146 260.706 165.548 260.731 163.402V156.875C260.731 155.406 260.6 154.195 260.342 153.243C260.199 152.719 260.018 152.274 259.799 151.906C259.174 150.871 258.206 150.349 256.888 150.349C255.606 150.349 254.664 150.844 254.054 151.833C253.895 152.091 253.756 152.386 253.636 152.72C253.596 152.827 253.559 152.938 253.525 153.053L253.446 153.339L253.385 153.588C253.36 153.696 253.338 153.807 253.316 153.921C253.291 154.058 253.266 154.198 253.245 154.343C253.189 154.717 253.147 155.119 253.119 155.548C253.099 155.839 253.087 156.143 253.081 156.458V163.135C253.081 165.375 253.387 167.036 253.997 168.125C254.606 169.208 255.581 169.756 256.924 169.756C258.258 169.756 259.216 169.229 259.809 168.188Z" fill="url(#paint0_linear_1029_28)"/>
<defs>
<linearGradient id="paint0_linear_1029_28" x1="182.918" y1="6.85718" x2="182.918" y2="362.238" gradientUnits="userSpaceOnUse">
<stop stop-color="#33A4DF"/>
<stop offset="1" stop-color="#DB2981"/>
</linearGradient>
</defs>
</svg>
