<svg width="362" height="364" viewBox="0 0 362 364" fill="none" xmlns="http://www.w3.org/2000/svg">
<path d="M118.848 179.247C121.921 177.852 124.405 175.852 126.296 173.247C128.191 170.638 129.134 167.784 129.134 164.68C129.134 158.664 127.103 153.94 123.04 150.513C118.973 147.081 113.358 145.367 106.191 145.367C102.066 145.367 98.2904 146.159 94.8581 147.742C91.431 149.326 88.7643 151.518 86.8581 154.331C84.9466 157.138 83.9935 160.31 83.9935 163.846H97.4414C97.4414 161.581 98.3112 159.742 100.051 158.331C101.785 156.919 103.941 156.211 106.52 156.211C109.374 156.211 111.613 156.977 113.243 158.492C114.874 160.013 115.686 162.138 115.686 164.872C115.686 167.695 114.863 169.956 113.223 171.664C111.577 173.372 109.046 174.227 105.634 174.227H98.4674V184.742H105.587C113.035 184.742 116.759 188.122 116.759 194.888C116.759 197.68 115.848 199.919 114.035 201.612C112.217 203.305 109.712 204.148 106.52 204.148C103.728 204.148 101.379 203.341 99.4674 201.727C97.5612 200.112 96.6081 198.034 96.6081 195.492H83.1602C83.1602 201.357 85.306 206.07 89.6029 209.638C93.8997 213.206 99.431 214.992 106.197 214.992C113.426 214.992 119.233 213.174 123.624 209.544C128.014 205.914 130.207 201.091 130.207 195.07C130.207 191.346 129.27 188.122 127.395 185.393C125.514 182.664 122.671 180.612 118.853 179.247H118.848Z" fill="white"/>
<path d="M166.923 168.732C161.434 168.732 156.887 170.56 153.288 174.221C154.038 168.763 156.262 164.497 159.97 161.424C163.673 158.352 168.569 156.773 174.652 156.68H175.954V145.602H173.72C166.861 145.633 160.84 147.195 155.642 150.279C150.444 153.367 146.454 157.727 143.678 163.357C140.902 168.987 139.512 175.482 139.512 182.831V187.669C139.512 195.956 141.71 202.581 146.1 207.544C150.486 212.508 156.251 214.987 163.387 214.987C167.793 214.987 171.741 213.997 175.23 212.008C178.72 210.023 181.418 207.247 183.329 203.68C185.236 200.112 186.189 196.128 186.189 191.721C186.189 184.831 184.449 179.279 180.975 175.06C177.501 170.841 172.819 168.732 166.923 168.732ZM170.111 200.732C168.329 203.008 165.996 204.148 163.111 204.148C159.913 204.148 157.434 202.883 155.663 200.362C153.897 197.841 153.012 194.331 153.012 189.841V185.753C153.85 183.893 155.152 182.404 156.918 181.273C158.689 180.143 160.658 179.576 162.829 179.576C165.871 179.576 168.288 180.706 170.09 182.966C171.887 185.227 172.788 188.201 172.788 191.883C172.788 195.508 171.897 198.456 170.111 200.732Z" fill="white"/>
<path d="M216.814 145.367C209.428 145.367 203.772 147.82 199.85 152.721C195.923 157.622 193.965 164.805 193.965 174.268V186.737C194.059 195.831 196.059 202.81 199.965 207.68C203.876 212.555 209.522 214.987 216.908 214.987C224.382 214.987 230.064 212.503 233.939 207.539C237.819 202.576 239.757 195.409 239.757 186.039V173.57C239.663 164.477 237.663 157.508 233.751 152.648C229.845 147.794 224.199 145.367 216.814 145.367ZM226.309 188.445C226.246 193.758 225.486 197.701 224.027 200.279C222.569 202.857 220.194 204.148 216.908 204.148C213.585 204.148 211.173 202.799 209.668 200.117C208.168 197.43 207.413 193.326 207.413 187.794V171.305C207.507 166.117 208.303 162.305 209.809 159.867C211.314 157.43 213.647 156.211 216.814 156.211C220.074 156.211 222.47 157.492 224.007 160.055C225.538 162.617 226.309 166.711 226.309 172.331V188.445Z" fill="white"/>
<path d="M263.569 148.315C261.991 146.352 259.704 145.367 256.715 145.367C253.725 145.367 251.439 146.362 249.85 148.346C248.262 150.331 247.465 153.237 247.465 157.07V162.117C247.507 165.799 248.314 168.622 249.897 170.596C251.48 172.565 253.762 173.549 256.751 173.549C259.777 173.549 262.079 172.544 263.647 170.539C265.22 168.529 266.001 165.628 266.001 161.836V156.784C265.965 153.107 265.152 150.284 263.574 148.315H263.569ZM260.559 162.81C260.533 164.956 260.225 166.555 259.637 167.596C259.043 168.638 258.085 169.164 256.751 169.164C255.408 169.164 254.434 168.617 253.824 167.534C253.215 166.445 252.908 164.784 252.908 162.544V155.867C252.949 153.768 253.272 152.227 253.882 151.242C254.491 150.253 255.434 149.758 256.715 149.758C258.033 149.758 259.001 150.279 259.626 151.315C260.246 152.352 260.559 154.008 260.559 156.284V162.81Z" fill="white"/>
<path d="M146.301 24.6224L123.973 0.0546875L113.832 31.5286L146.301 24.6224Z" fill="white"/>
<path d="M241.009 79.4911C285.962 117.626 324.342 165.434 345.212 220.991C355.275 248.715 361.379 279.882 353.249 309.022C340.337 353.58 298.723 367.856 256.061 362.251C163.728 349.762 70.0975 265.84 27.6183 185.361C5.21209 142.715 -13.2983 83.3921 15.1756 39.4286C33.4673 12.0275 67.9517 2.87126 99.2121 5.65772C109.483 6.3973 119.587 8.16813 129.499 10.5536L125.613 25.0223C107.733 19.8036 88.6756 17.0275 70.2642 19.7463C61.2173 21.1421 52.4517 23.8869 44.6496 28.2879C0.93605 53.9754 8.68605 113.616 24.7173 154.345C33.3319 176.903 45.3111 198.111 59.0558 217.929C103.379 280.923 178.874 344.241 256.894 355.861C274.577 358.225 293.061 357.725 309.707 350.918C339.243 339.345 352.821 309.699 352.353 279.22C352.243 250.121 342.712 221.507 330.082 195.423C317.108 169.121 300.384 144.725 281.165 122.59C268.389 107.762 254.441 93.9338 239.571 81.189L241.009 79.4911Z" fill="white"/>
<path d="M219.543 306.792L231.637 275.875L252.34 301.656L219.543 306.792Z" fill="white"/>
<mask id="mask0_2084_5988" style="mask-type:luminance" maskUnits="userSpaceOnUse" x="3" y="6" width="359" height="356">
<path d="M3.33203 6H361.113V362H3.33203V6Z" fill="white"/>
</mask>
<g mask="url(#mask0_2084_5988)">
<path d="M235.056 285.751C278.733 248.621 316.249 202.163 336.676 148.194C346.259 121.876 352.088 92.9649 344.624 65.7774C333.067 25.5743 295.358 13.8347 257.187 18.6941C171.478 30.1055 85.0875 105.397 41.8636 177.897C17.0771 219.793 -7.27704 283.46 21.4938 328.501C38.1292 353.538 69.9261 361.35 98.473 358.33C108.16 357.413 117.759 355.548 127.14 352.934L127.973 356.022C90.4782 366.095 43.0615 365.434 18.6657 330.444C-11.9854 284.319 11.624 218.527 36.5198 174.772C80.0303 99.0691 167.244 21.0014 255.77 7.73053C315.796 -1.04551 361.379 29.8868 361.353 93.0899C360.452 153.007 326.145 211.423 288.119 255.757C275.025 270.928 260.759 285.059 245.525 298.106L235.056 285.751Z" fill="white"/>
</g>
</svg>
